<svg width="115" height="26" viewBox="0 0 115 26" fill="none" xmlns="http://www.w3.org/2000/svg">
<path d="M15.04 9.79194L5.50405 25.5999H4.25605L1.72805 5.47194C1.62138 4.66127 1.38671 4.12794 1.02405 3.87194C0.66138 3.59461 0.320047 3.44527 4.69685e-05 3.42394L0.128047 2.78394C0.640047 2.80527 1.25871 2.82661 1.98405 2.84794C2.70938 2.86927 3.44538 2.87994 4.19205 2.87994C5.00271 2.87994 5.74938 2.86927 6.43205 2.84794C7.11471 2.82661 7.66938 2.80527 8.09605 2.78394L7.96805 3.42394C7.28538 3.46661 6.80538 3.65861 6.52805 3.99994C6.25071 4.31994 6.15471 5.02394 6.24005 6.11194L7.93605 20.8959L7.20005 21.5679L14.784 8.99194L15.04 9.79194ZM26.24 7.58394C26.816 6.47461 27.1147 5.63194 27.136 5.05594C27.1574 4.47994 26.944 4.07461 26.496 3.83994C26.048 3.60527 25.3974 3.46661 24.544 3.42394L24.704 2.78394C25.024 2.80527 25.4187 2.82661 25.888 2.84794C26.3787 2.84794 26.8694 2.85861 27.36 2.87994C27.872 2.87994 28.32 2.87994 28.704 2.87994C29.216 2.87994 29.6534 2.86927 30.016 2.84794C30.4 2.82661 30.7627 2.80527 31.104 2.78394L30.944 3.42394C30.56 3.53061 30.176 3.67994 29.792 3.87194C29.4294 4.06394 29.0454 4.37327 28.64 4.79994C28.256 5.22661 27.8614 5.83461 27.456 6.62394L17.504 25.5999H16.256L13.344 5.47194C13.2374 4.68261 13.0454 4.14927 12.768 3.87194C12.4907 3.59461 12.2134 3.44527 11.936 3.42394L12.064 2.78394C12.5334 2.80527 13.0987 2.82661 13.76 2.84794C14.4427 2.86927 15.1254 2.87994 15.808 2.87994C16.768 2.87994 17.6534 2.86927 18.464 2.84794C19.296 2.82661 19.968 2.80527 20.48 2.78394L20.352 3.42394C19.2854 3.46661 18.5707 3.64794 18.208 3.96794C17.8454 4.28794 17.728 5.00261 17.856 6.11194L19.872 20.4479L19.136 21.0879L26.24 7.58394ZM29.4578 18.3999C30.4605 18.0159 31.3778 17.6213 32.2098 17.2159C33.0631 16.7893 33.7778 16.3413 34.3538 15.8719C35.1431 15.1679 35.7831 14.3466 36.2738 13.4079C36.7645 12.4479 37.0098 11.4026 37.0098 10.2719C37.0098 9.78127 36.9671 9.46127 36.8818 9.31194C36.7965 9.16261 36.6685 9.08794 36.4978 9.08794C36.0071 9.08794 35.4738 9.32261 34.8978 9.79194C34.3218 10.2613 33.7565 10.9119 33.2018 11.7439C32.6471 12.5546 32.1351 13.4719 31.6658 14.4959C31.2178 15.5199 30.8551 16.5973 30.5778 17.7279C30.3005 18.8586 30.1618 19.9786 30.1618 21.0879C30.1618 22.2186 30.3751 23.0186 30.8018 23.4879C31.2498 23.9359 31.8365 24.1599 32.5618 24.1599C33.1805 24.1599 33.9165 23.9573 34.7698 23.5519C35.6231 23.1466 36.4658 22.4106 37.2978 21.3439L37.8098 21.5999C37.3831 22.3039 36.8178 22.9866 36.1138 23.6479C35.4098 24.3093 34.5991 24.8533 33.6818 25.2799C32.7858 25.6853 31.7938 25.8879 30.7058 25.8879C29.8098 25.8879 28.9991 25.7173 28.2738 25.3759C27.5485 25.0346 26.9831 24.5333 26.5778 23.8719C26.1725 23.1893 25.9698 22.3573 25.9698 21.3759C25.9698 20.3306 26.1511 19.2213 26.5138 18.0479C26.8765 16.8533 27.3885 15.6906 28.0498 14.5599C28.7325 13.4293 29.5325 12.4053 30.4498 11.4879C31.3885 10.5706 32.4231 9.84527 33.5538 9.31194C34.6845 8.75727 35.9005 8.47994 37.2018 8.47994C38.0551 8.47994 38.7698 8.68261 39.3458 9.08794C39.9218 9.47194 40.2098 10.0693 40.2098 10.8799C40.2098 11.7119 39.9751 12.4906 39.5058 13.2159C39.0365 13.9413 38.3965 14.6026 37.5858 15.1999C36.7965 15.7973 35.9218 16.3306 34.9618 16.7999C34.0231 17.2693 33.0738 17.6746 32.1138 18.0159C31.1538 18.3573 30.2578 18.6346 29.4258 18.8479L29.4578 18.3999ZM44.4355 22.7199C44.2649 23.2959 44.2222 23.7333 44.3075 24.0319C44.4142 24.3093 44.6275 24.4479 44.9475 24.4479C45.2462 24.4479 45.5662 24.2666 45.9075 23.9039C46.2702 23.5199 46.6542 22.7839 47.0595 21.6959L47.5715 20.2559H48.1795L47.3795 22.5919C47.0809 23.4453 46.7075 24.1173 46.2595 24.6079C45.8115 25.0773 45.3315 25.4079 44.8195 25.5999C44.3075 25.7919 43.7849 25.8879 43.2515 25.8879C42.5689 25.8879 42.0249 25.7599 41.6195 25.5039C41.2142 25.2479 40.9369 24.8959 40.7875 24.4479C40.6382 23.9999 40.5849 23.4879 40.6275 22.9119C40.6702 22.3146 40.7982 21.6746 41.0115 20.9919L46.0995 4.09594C46.3129 3.37061 46.2915 2.83727 46.0355 2.49594C45.7795 2.15461 45.1289 1.98394 44.0835 1.98394L44.3075 1.31194C45.6942 1.29061 46.9315 1.17327 48.0195 0.95994C49.1075 0.725274 50.1529 0.405274 51.1555 -5.91278e-05L44.4355 22.7199ZM53.7465 22.7199C53.5759 23.2959 53.5332 23.7333 53.6185 24.0319C53.7252 24.3093 53.9385 24.4479 54.2585 24.4479C54.5572 24.4479 54.8772 24.2666 55.2185 23.9039C55.5812 23.5199 55.9652 22.7839 56.3705 21.6959L56.8825 20.2559H57.4905L56.6905 22.5919C56.3919 23.4453 56.0185 24.1173 55.5705 24.6079C55.1225 25.0773 54.6425 25.4079 54.1305 25.5999C53.6185 25.7919 53.0959 25.8879 52.5625 25.8879C51.8799 25.8879 51.3359 25.7599 50.9305 25.5039C50.5252 25.2479 50.2479 24.8959 50.0985 24.4479C49.9492 23.9999 49.8959 23.4879 49.9385 22.9119C49.9812 22.3146 50.1092 21.6746 50.3225 20.9919L55.4105 4.09594C55.6239 3.37061 55.6025 2.83727 55.3465 2.49594C55.0905 2.15461 54.4399 1.98394 53.3945 1.98394L53.6185 1.31194C55.0052 1.29061 56.2425 1.17327 57.3305 0.95994C58.4185 0.725274 59.4639 0.405274 60.4665 -5.91278e-05L53.7465 22.7199ZM76.7215 9.79194L67.1855 25.5999H65.9375L63.4095 5.47194C63.3029 4.66127 63.0682 4.12794 62.7055 3.87194C62.3429 3.59461 62.0015 3.44527 61.6815 3.42394L61.8095 2.78394C62.3215 2.80527 62.9402 2.82661 63.6655 2.84794C64.3909 2.86927 65.1269 2.87994 65.8735 2.87994C66.6842 2.87994 67.4309 2.86927 68.1135 2.84794C68.7962 2.82661 69.3509 2.80527 69.7775 2.78394L69.6495 3.42394C68.9669 3.46661 68.4869 3.65861 68.2095 3.99994C67.9322 4.31994 67.8362 5.02394 67.9215 6.11194L69.6175 20.8959L68.8815 21.5679L76.4655 8.99194L76.7215 9.79194ZM87.9215 7.58394C88.4975 6.47461 88.7962 5.63194 88.8175 5.05594C88.8389 4.47994 88.6255 4.07461 88.1775 3.83994C87.7295 3.60527 87.0789 3.46661 86.2255 3.42394L86.3855 2.78394C86.7055 2.80527 87.1002 2.82661 87.5695 2.84794C88.0602 2.84794 88.5509 2.85861 89.0415 2.87994C89.5535 2.87994 90.0015 2.87994 90.3855 2.87994C90.8975 2.87994 91.3349 2.86927 91.6975 2.84794C92.0815 2.82661 92.4442 2.80527 92.7855 2.78394L92.6255 3.42394C92.2415 3.53061 91.8575 3.67994 91.4735 3.87194C91.1109 4.06394 90.7269 4.37327 90.3215 4.79994C89.9375 5.22661 89.5429 5.83461 89.1375 6.62394L79.1855 25.5999H77.9375L75.0255 5.47194C74.9189 4.68261 74.7269 4.14927 74.4495 3.87194C74.1722 3.59461 73.8949 3.44527 73.6175 3.42394L73.7455 2.78394C74.2149 2.80527 74.7802 2.82661 75.4415 2.84794C76.1242 2.86927 76.8069 2.87994 77.4895 2.87994C78.4495 2.87994 79.3349 2.86927 80.1455 2.84794C80.9775 2.82661 81.6495 2.80527 82.1615 2.78394L82.0335 3.42394C80.9669 3.46661 80.2522 3.64794 79.8895 3.96794C79.5269 4.28794 79.4095 5.00261 79.5375 6.11194L81.5535 20.4479L80.8175 21.0879L87.9215 7.58394ZM91.1393 18.3999C92.142 18.0159 93.0593 17.6213 93.8913 17.2159C94.7446 16.7893 95.4593 16.3413 96.0353 15.8719C96.8246 15.1679 97.4646 14.3466 97.9553 13.4079C98.446 12.4479 98.6913 11.4026 98.6913 10.2719C98.6913 9.78127 98.6486 9.46127 98.5633 9.31194C98.478 9.16261 98.35 9.08794 98.1793 9.08794C97.6886 9.08794 97.1553 9.32261 96.5793 9.79194C96.0033 10.2613 95.438 10.9119 94.8833 11.7439C94.3286 12.5546 93.8166 13.4719 93.3473 14.4959C92.8993 15.5199 92.5366 16.5973 92.2593 17.7279C91.982 18.8586 91.8433 19.9786 91.8433 21.0879C91.8433 22.2186 92.0566 23.0186 92.4833 23.4879C92.9313 23.9359 93.518 24.1599 94.2433 24.1599C94.862 24.1599 95.598 23.9573 96.4513 23.5519C97.3046 23.1466 98.1473 22.4106 98.9793 21.3439L99.4913 21.5999C99.0646 22.3039 98.4993 22.9866 97.7953 23.6479C97.0913 24.3093 96.2806 24.8533 95.3633 25.2799C94.4673 25.6853 93.4753 25.8879 92.3873 25.8879C91.4913 25.8879 90.6806 25.7173 89.9553 25.3759C89.23 25.0346 88.6646 24.5333 88.2593 23.8719C87.854 23.1893 87.6513 22.3573 87.6513 21.3759C87.6513 20.3306 87.8326 19.2213 88.1953 18.0479C88.558 16.8533 89.07 15.6906 89.7313 14.5599C90.414 13.4293 91.214 12.4053 92.1313 11.4879C93.07 10.5706 94.1046 9.84527 95.2353 9.31194C96.366 8.75727 97.582 8.47994 98.8833 8.47994C99.7366 8.47994 100.451 8.68261 101.027 9.08794C101.603 9.47194 101.891 10.0693 101.891 10.8799C101.891 11.7119 101.657 12.4906 101.187 13.2159C100.718 13.9413 100.078 14.6026 99.2673 15.1999C98.478 15.7973 97.6033 16.3306 96.6433 16.7999C95.7046 17.2693 94.7553 17.6746 93.7953 18.0159C92.8353 18.3573 91.9393 18.6346 91.1073 18.8479L91.1393 18.3999ZM114.565 8.92794L114.469 9.56794H103.749L103.909 8.92794H114.565ZM106.789 22.7199C106.618 23.3173 106.64 23.7546 106.853 24.0319C107.088 24.3093 107.397 24.4479 107.781 24.4479C108.229 24.4479 108.677 24.2346 109.125 23.8079C109.594 23.3813 110.021 22.6346 110.405 21.5679L110.885 20.2559H111.493L110.853 22.1759C110.405 23.4986 109.786 24.4479 108.997 25.0239C108.208 25.5999 107.269 25.8879 106.181 25.8879C105.221 25.8879 104.485 25.6746 103.973 25.2479C103.482 24.8213 103.184 24.2453 103.077 23.5199C102.992 22.7733 103.088 21.9306 103.365 20.9919L108.197 4.12794C108.965 4.10661 109.68 4.06394 110.341 3.99994C111.024 3.93594 111.664 3.82927 112.261 3.67994L106.789 22.7199Z" fill="#1C1C1E"/>
</svg>
